<svg width="900px" height="964px"
 viewBox="0.00 0.00 336.19 359.50" xmlns="http://www.w3.org/2000/svg" xmlns:xlink="http://www.w3.org/1999/xlink">
<g id="graph0" class="graph" transform="scale(1.0 1.0) rotate(0) translate(4 355.5018)">
<title>example2</title>
<polygon fill="#ffffff" stroke="transparent" points="-4,4 -4,-355.5018 332.1903,-355.5018 332.1903,4 -4,4"/>
<!-- main -->
<g id="node1" class="node">
<title>main</title>
<ellipse fill="none" stroke="#000000" cx="109.3593" cy="-326.0459" rx="31.2198" ry="25.4118"/>
<text text-anchor="start" x="95.3614" y="-328.4459" font-family="Times,serif" font-weight="bold" font-size="14.00" fill="#1020d0">main</text>
<text text-anchor="start" x="97.3088" y="-314.4459" font-family="Times,serif" font-size="14.00" fill="#1020d0">start</text>
</g>
<!-- &lt;b&gt;&lt;u&gt;init&lt;/u&gt;&lt;/b&gt; -->
<g id="node2" class="node">
<title>&lt;b&gt;&lt;u&gt;init&lt;/u&gt;&lt;/b&gt;</title>
<ellipse fill="none" stroke="#000000" cx="50.3593" cy="-191.5901" rx="27" ry="18"/>
<text text-anchor="start" x="41.0234" y="-188.3901" font-family="Times,serif" font-weight="bold" text-decoration="underline" font-size="14.00" fill="#000000">init</text>
</g>
<!-- main&#45;&gt;&lt;b&gt;&lt;u&gt;init&lt;/u&gt;&lt;/b&gt; -->
<g id="edge2" class="edge">
<title>main&#45;&gt;&lt;b&gt;&lt;u&gt;init&lt;/u&gt;&lt;/b&gt;</title>
<path fill="none" stroke="#000000" stroke-dasharray="1,5" d="M92.947,-304.1599C84.903,-292.5882 75.6243,-277.8552 69.3593,-263.5901 63.187,-249.5359 58.6529,-233.0302 55.5653,-219.3703"/>
<polygon fill="#000000" stroke="#000000" points="58.9844,-218.6214 53.4829,-209.5669 52.1372,-220.0759 58.9844,-218.6214"/>
</g>
<!-- parse -->
<g id="node5" class="node">
<title>parse</title>
<ellipse fill="none" stroke="#000000" cx="109.3593" cy="-245.5901" rx="31.3179" ry="18"/>
<text text-anchor="middle" x="109.3593" y="-241.3901" font-family="Times,serif" font-size="14.00" fill="#000000">parse</text>
</g>
<!-- main&#45;&gt;parse -->
<g id="edge1" class="edge">
<title>main&#45;&gt;parse</title>
<path fill="none" stroke="#000000" d="M109.3593,-300.5892C109.3593,-292.0795 109.3593,-282.5457 109.3593,-273.8365"/>
<polygon fill="#000000" stroke="#000000" points="112.8594,-273.7462 109.3593,-263.7463 105.8594,-273.7463 112.8594,-273.7462"/>
</g>
<!-- cleanup -->
<g id="node6" class="node">
<title>cleanup</title>
<ellipse fill="none" stroke="#000000" cx="199.3593" cy="-245.5901" rx="41.1316" ry="18"/>
<text text-anchor="middle" x="199.3593" y="-241.3901" font-family="Times,serif" font-size="14.00" fill="#000000">cleanup</text>
</g>
<!-- main&#45;&gt;cleanup -->
<g id="edge3" class="edge">
<title>main&#45;&gt;cleanup</title>
<path fill="none" stroke="#000000" d="M130.688,-306.979C143.5501,-295.4809 160.0188,-280.7586 173.6043,-268.6139"/>
<polygon fill="#000000" stroke="#000000" points="176.0982,-271.0791 181.2209,-261.805 171.4329,-265.8603 176.0982,-271.0791"/>
</g>
<!-- printf -->
<g id="node7" class="node">
<title>printf</title>
<ellipse fill="none" stroke="#000000" cx="251.3593" cy="-41.295" rx="32.4808" ry="18"/>
<text text-anchor="middle" x="251.3593" y="-37.095" font-family="Times,serif" font-size="14.00" fill="#000000">printf</text>
</g>
<!-- main&#45;&gt;printf -->
<g id="edge4" class="edge">
<title>main&#45;&gt;printf</title>
<path fill="none" stroke="#ff0000" stroke-width="2" d="M140.1246,-322.0173C173.4672,-315.8334 225.1443,-300.5429 249.3593,-263.5901 288.609,-203.6938 272.0136,-113.8453 259.9065,-68.9278"/>
<polygon fill="#ff0000" stroke="#ff0000" stroke-width="2" points="263.27,-67.9595 257.1874,-59.2846 256.5327,-69.8592 263.27,-67.9595"/>
<text text-anchor="middle" x="300.7748" y="-187.3901" font-family="Times,serif" font-size="14.00" fill="#000000">100 times</text>
</g>
<!-- mkString -->
<g id="node4" class="node">
<title>mkString</title>
<ellipse fill="none" stroke="#000000" cx="50.3593" cy="-41.295" rx="50.219" ry="41.0911"/>
<text text-anchor="start" x="22.7499" y="-53.895" font-family="Times,serif" font-size="14.00" fill="#000000">make</text>
<text text-anchor="start" x="22.7499" y="-37.095" font-family="Times,serif" font-size="14.00" fill="#000000">a</text>
<text text-anchor="start" x="22.7499" y="-20.295" font-family="Times,serif" font-size="14.00" fill="#000000">multi&#45;line</text>
</g>
<!-- &lt;b&gt;&lt;u&gt;init&lt;/u&gt;&lt;/b&gt;&#45;&gt;mkString -->
<g id="edge9" class="edge">
<title>&lt;b&gt;&lt;u&gt;init&lt;/u&gt;&lt;/b&gt;&#45;&gt;mkString</title>
<path fill="none" stroke="#000000" d="M50.3593,-173.461C50.3593,-153.5741 50.3593,-120.763 50.3593,-92.8093"/>
<polygon fill="#000000" stroke="#000000" points="53.8594,-92.7632 50.3593,-82.7632 46.8594,-92.7633 53.8594,-92.7632"/>
</g>
<!-- compare -->
<g id="node3" class="node">
<title>compare</title>
<polygon fill="#c1b2ff" stroke="#c1b2ff" points="182.5546,-59.295 118.164,-59.295 118.164,-23.295 182.5546,-23.295 182.5546,-59.295"/>
<text text-anchor="middle" x="150.3593" y="-37.095" font-family="Times,serif" font-size="14.00" fill="#000000">compare</text>
</g>
<!-- execute -->
<g id="node8" class="node">
<title>execute</title>
<ellipse fill="none" stroke="#000000" cx="135.3593" cy="-137.5901" rx="40.548" ry="18"/>
<text text-anchor="middle" x="135.3593" y="-133.3901" font-family="Times,serif" font-size="14.00" fill="#000000">execute</text>
</g>
<!-- parse&#45;&gt;execute -->
<g id="edge5" class="edge">
<title>parse&#45;&gt;execute</title>
<path fill="none" stroke="#000000" d="M113.6527,-227.7561C117.7117,-210.8955 123.8666,-185.3291 128.587,-165.7211"/>
<polygon fill="#000000" stroke="#000000" points="132.0348,-166.353 130.9726,-155.8116 125.2292,-164.7146 132.0348,-166.353"/>
</g>
<!-- execute&#45;&gt;compare -->
<g id="edge8" class="edge">
<title>execute&#45;&gt;compare</title>
<path fill="none" stroke="#ff0000" d="M138.1807,-119.4777C140.3806,-105.3552 143.4746,-85.4925 145.9935,-69.3219"/>
<polygon fill="#ff0000" stroke="#ff0000" points="149.4696,-69.7458 147.5506,-59.3262 142.553,-68.6683 149.4696,-69.7458"/>
</g>
<!-- execute&#45;&gt;mkString -->
<g id="edge6" class="edge">
<title>execute&#45;&gt;mkString</title>
<path fill="none" stroke="#000000" d="M120.5534,-120.8168C111.2493,-110.2763 98.8088,-96.1827 86.9865,-82.7894"/>
<polygon fill="#000000" stroke="#000000" points="89.3672,-80.1975 80.1255,-75.0166 84.1192,-84.8299 89.3672,-80.1975"/>
</g>
<!-- execute&#45;&gt;printf -->
<g id="edge7" class="edge">
<title>execute&#45;&gt;printf</title>
<path fill="none" stroke="#000000" d="M154.5143,-121.6889C173.9149,-105.5839 204.0468,-80.5705 225.5454,-62.7239"/>
<polygon fill="#000000" stroke="#000000" points="227.8631,-65.3488 233.3218,-56.2685 223.3919,-59.9628 227.8631,-65.3488"/>
</g>
</g>
</svg>
